<svg xmlns="http://www.w3.org/2000/svg" version="1.0" width="900.000000pt" height="288.000000pt" viewBox="0 0 900.000000 288.000000" preserveAspectRatio="xMidYMid meet">
<metadata>
Created by potrace 1.10, written by Peter Selinger 2001-2011
</metadata>
<g transform="translate(0.000000,288.000000) scale(0.100000,-0.100000)" fill="#000000" stroke="none">
<path d="M2125 2210 c-65 -8 -122 -23 -172 -46 -17 -8 -33 -14 -37 -14 -3 0 -31 -16 -63 -35 -249 -150 -381 -424 -343 -715 7 -55 16 -103 21 -106 5 -3 9 -13 9 -23 0 -9 17 -49 38 -89 147 -281 426 -430 733 -393 55 7 111 19 126 27 16 7 34 14 41 14 7 0 20 4 30 9 218 117 330 242 403 451 20 56 23 85 23 210 1 148 -1 159 -51 280 -47 115 -139 231 -236 296 -23 16 -44 31 -47 34 -12 12 -129 64 -175 78 -99 28 -190 35 -300 22z m276 -80 c190 -59 354 -203 423 -370 10 -25 22 -53 28 -63 19 -37 29 -194 19 -288 -6 -50 -14 -96 -19 -103 -5 -6 -12 -24 -16 -39 -4 -16 -18 -46 -31 -68 -14 -21 -25 -41 -25 -45 0 -3 -21 -32 -47 -65 -51 -66 -151 -144 -228 -179 -27 -12 -58 -26 -67 -31 -17 -8 -103 -25 -187 -36 -47 -6 -160 10 -231 34 -65 21 -140 56 -140 65 0 5 -5 8 -11 8 -10 0 -83 54 -114 85 -36 34 -99 126 -121 174 -15 31 -31 64 -36 75 -41 79 -41 351 0 432 5 11 24 50 43 89 32 65 112 159 192 223 50 41 172 96 252 115 11 3 72 5 136 6 91 1 130 -3 180 -19z"/>
<path d="M2106 1923 c-10 -32 -22 -71 -27 -88 -6 -16 -15 -46 -19 -65 -4 -19 -13 -50 -19 -67 -6 -18 -16 -48 -22 -65 -6 -18 -15 -49 -19 -68 -8 -33 -13 -51 -41 -132 -6 -18 -14 -46 -16 -63 -3 -16 -9 -35 -14 -40 -4 -6 -12 -29 -18 -50 -12 -52 -30 -103 -47 -138 -8 -16 -14 -40 -14 -53 0 -23 2 -24 73 -24 l74 0 17 63 c9 34 23 83 31 108 8 26 15 58 15 73 l0 26 148 0 148 0 14 -47 c8 -27 17 -64 21 -83 4 -19 14 -57 22 -85 l14 -50 84 0 c96 0 94 -3 59 85 -12 30 -26 73 -31 95 -6 21 -14 44 -18 50 -5 5 -11 24 -14 40 -2 17 -10 45 -16 63 -28 81 -33 99 -41 132 -4 19 -13 50 -19 68 -6 17 -16 47 -22 65 -6 17 -15 48 -19 67 -8 34 -14 54 -40 130 -7 19 -15 51 -19 70 l-6 35 -102 3 -101 3 -16 -58z m137 -118 c3 -30 10 -69 15 -87 13 -42 31 -112 41 -161 5 -21 14 -44 20 -50 6 -6 11 -19 11 -29 0 -16 -11 -18 -120 -18 -66 0 -120 4 -120 9 0 5 6 22 14 38 20 39 46 124 46 148 0 11 7 38 15 60 8 22 14 58 15 81 0 43 14 64 41 64 12 0 18 -13 22 -55z"/>
<path d="M6545 2213 c-45 -4 -134 -28 -182 -49 -17 -8 -33 -14 -37 -14 -13 0 -123 -72 -167 -110 -27 -23 -69 -68 -93 -99 -44 -57 -106 -165 -106 -185 0 -6 -6 -23 -14 -37 -7 -15 -19 -71 -26 -126 -20 -153 5 -292 75 -424 141 -268 426 -416 726 -380 55 7 111 19 126 27 16 7 34 14 41 14 7 0 20 4 30 9 218 117 330 242 403 451 20 56 23 85 23 210 0 125 -3 154 -23 210 -56 160 -148 288 -264 366 -23 16 -44 31 -47 34 -12 12 -129 64 -175 78 -90 26 -186 34 -290 25z m266 -83 c104 -32 189 -81 263 -150 85 -80 175 -212 176 -260 0 -9 5 -21 10 -26 6 -6 15 -52 21 -102 12 -98 0 -265 -21 -286 -5 -5 -10 -17 -10 -26 0 -26 -56 -127 -106 -190 -52 -67 -152 -145 -229 -180 -27 -12 -57 -26 -66 -30 -34 -17 -202 -42 -247 -37 -76 9 -172 27 -190 36 -9 5 -39 19 -67 32 -27 12 -52 25 -55 29 -3 3 -22 16 -42 29 -60 36 -162 154 -198 228 -18 37 -37 76 -42 87 -12 22 -26 100 -34 182 -6 58 16 212 36 254 4 8 22 46 41 85 33 68 116 164 199 228 51 41 163 91 245 110 11 3 72 5 136 6 91 1 130 -3 180 -19z"/>
<path d="M6346 1950 c-2 -3 -2 -207 -1 -453 l2 -449 299 -1 299 -1 3 64 c2 34 -1 66 -5 70 -4 4 -105 3 -223 0 -118 -4 -216 -6 -218 -5 -5 4 -5 275 0 281 4 3 79 6 169 7 l163 2 -1 53 c-1 28 -1 56 -2 61 -1 6 -67 7 -165 4 l-165 -6 -3 114 c-2 63 -2 119 0 124 1 7 82 10 225 10 l222 0 0 53 c0 30 -3 58 -6 64 -6 10 -588 18 -593 8z"/>
<path d="M3021 1881 c-9 -6 -12 -18 -7 -36 6 -22 11 -26 28 -21 47 12 48 6 48 -364 0 -192 -3 -355 -6 -364 -4 -10 -18 -16 -39 -16 -33 0 -54 -23 -33 -36 6 -4 99 -7 207 -7 185 0 196 1 196 19 0 14 -8 20 -30 22 -16 2 -33 7 -37 10 -3 4 -8 81 -9 172 l-4 165 31 3 c18 2 42 -6 63 -20 35 -24 54 -71 68 -165 3 -24 12 -48 19 -54 8 -6 14 -18 14 -26 0 -23 61 -82 105 -102 40 -18 262 -54 277 -45 4 3 8 16 8 30 0 17 -5 24 -20 24 -10 0 -28 10 -40 22 -26 28 -60 94 -60 116 0 9 -7 30 -15 46 -8 15 -15 36 -15 46 0 10 -21 41 -47 67 -36 37 -59 51 -93 59 -24 5 -44 14 -43 19 1 6 23 15 50 21 69 15 94 28 129 63 65 67 50 210 -27 269 -77 58 -188 77 -449 77 -118 0 -224 4 -235 7 -11 4 -26 4 -34 -1z m466 -83 c51 -30 73 -78 73 -158 0 -47 -6 -78 -17 -99 -23 -39 -89 -71 -155 -74 l-51 -2 2 175 c2 96 5 178 8 182 8 14 106 -3 140 -24z"/>
<path d="M645 1871 c-2 -4 -5 -63 -6 -130 -1 -126 5 -148 39 -136 8 3 18 5 23 5 5 0 9 28 9 63 0 103 38 143 140 149 l65 3 3 -372 2 -373 -55 0 c-42 0 -57 -4 -62 -16 -3 -9 -1 -19 5 -23 5 -3 115 -6 244 -5 223 1 233 1 233 20 0 16 -8 19 -56 22 -49 3 -58 6 -63 25 -3 12 -6 176 -6 363 0 283 2 344 14 353 23 19 132 3 165 -25 28 -23 51 -94 51 -155 0 -28 2 -30 33 -27 l32 3 0 130 0 130 -403 1 c-221 1 -404 -1 -407 -5z"/>
<path d="M5177 1873 c-3 -4 -7 -70 -8 -146 -4 -149 0 -163 49 -150 20 5 22 12 22 70 0 109 53 173 144 173 18 0 57 5 86 10 80 15 81 -1 10 -115 -11 -16 -31 -52 -46 -80 -14 -27 -41 -77 -59 -110 -19 -33 -46 -82 -60 -110 -15 -27 -42 -77 -61 -110 -18 -33 -38 -69 -44 -80 -11 -21 -18 -34 -62 -103 -52 -81 -58 -79 194 -84 123 -3 285 -3 361 0 l137 5 -2 161 -3 161 -30 0 c-27 0 -30 -3 -32 -35 -2 -19 -8 -65 -14 -102 -15 -82 -48 -118 -124 -136 -56 -13 -211 -20 -221 -9 -3 3 4 25 17 49 53 99 61 114 79 143 11 17 31 53 45 80 14 28 35 64 45 80 11 17 22 36 25 43 3 6 7 18 10 25 3 6 14 26 25 42 10 17 31 53 45 80 14 28 34 64 45 80 11 17 24 39 30 50 6 11 19 35 31 54 40 67 49 64 -308 68 -177 2 -323 0 -326 -4z"/>
<path d="M4225 1730 c-97 -20 -161 -61 -197 -127 -23 -40 -23 -64 2 -106 34 -57 100 -73 174 -42 48 20 74 74 58 120 -31 89 -20 125 36 125 65 0 102 -72 102 -196 0 -86 -2 -88 -100 -98 -35 -4 -80 -14 -98 -22 -19 -8 -43 -14 -54 -14 -21 0 -69 -24 -102 -50 -23 -19 -66 -107 -66 -138 0 -35 35 -94 71 -122 32 -22 42 -24 154 -24 105 0 125 3 160 22 49 27 57 27 80 2 16 -18 31 -20 140 -20 108 0 124 2 139 19 23 26 13 41 -28 41 -17 0 -37 5 -44 12 -9 9 -12 73 -12 229 0 192 -2 221 -19 260 -23 51 -61 89 -111 112 -41 18 -226 30 -285 17z m173 -470 c2 -105 1 -115 -19 -136 -34 -37 -80 -32 -124 11 -32 33 -35 41 -35 93 1 62 21 97 70 122 28 15 80 29 95 26 6 -2 11 -51 13 -116z"/>
<path d="M7803 1734 c-12 -3 -27 -12 -33 -20 -15 -18 -36 -18 -43 -1 -8 20 -327 23 -327 3 0 -21 27 -39 50 -33 10 3 24 -1 30 -8 8 -9 10 -157 10 -475 l-2 -462 166 -3 c156 -3 166 -2 166 15 0 15 -9 19 -42 22 l-43 3 -3 143 c-2 97 1 142 8 142 6 0 28 -11 48 -25 32 -22 48 -25 119 -25 72 0 90 4 135 28 58 31 123 101 146 158 23 58 28 294 8 336 -9 17 -16 36 -16 42 0 22 -90 114 -132 136 -32 17 -64 23 -133 25 -49 2 -100 1 -112 -1z m103 -93 c41 -44 64 -129 64 -244 0 -137 -22 -219 -76 -274 -49 -52 -76 -54 -127 -12 l-37 30 0 198 c0 156 3 208 16 247 24 69 39 84 90 84 34 0 48 -6 70 -29z"/>
</g>
</svg>